<svg width="12" height="10" viewBox="0 0 12 10" fill="none" xmlns="http://www.w3.org/2000/svg">
<path d="M10.431 7.85016C10.5358 7.67644 10.7977 7.67644 10.9024 7.85016L11.9631 9.60912C12.0679 9.78284 11.9369 10 11.7274 10H9.60601C9.39649 10 9.26554 9.78284 9.3703 9.60912L10.431 7.85016Z" fill="white"/>
<path d="M8.96805 5.43974C9.07281 5.26601 9.33472 5.26601 9.43948 5.43974L10.5002 7.1987C10.6049 7.37242 10.474 7.58958 10.2645 7.58958H8.14306C7.93354 7.58958 7.80259 7.37242 7.90735 7.1987L8.96805 5.43974Z" fill="white"/>
<path d="M4.1029 2.86645C4.20766 2.69273 4.46956 2.69273 4.57432 2.86645L8.64035 9.60912C8.74511 9.78284 8.61416 10 8.40464 10H0.272583C0.0630616 10 -0.0678901 9.78284 0.0368707 9.60912L4.1029 2.86645Z" fill="white"/>
<path d="M5.76998 0.130293C5.87474 -0.0434308 6.13664 -0.0434313 6.2414 0.130293L9.01102 4.72313C9.11578 4.89685 8.98483 5.11401 8.7753 5.11401H3.23608C3.02656 5.11401 2.89561 4.89685 3.00037 4.72313L5.76998 0.130293Z" fill="white"/>
</svg>
